<?xml version="1.0" encoding="UTF-8" standalone="no"?>
<svg width="30px" height="30px" viewBox="0 0 30 30" version="1.1" xmlns="http://www.w3.org/2000/svg" xmlns:xlink="http://www.w3.org/1999/xlink">
    <!-- Generator: Sketch 46.1 (44463) - http://www.bohemiancoding.com/sketch -->
    <title>Combined Shape</title>
    <desc>Created with Sketch.</desc>
    <defs></defs>
    <g id="Page-1" stroke="none" stroke-width="1" fill="none" fill-rule="evenodd">
        <g id="移动监管-新增任务" transform="translate(-50.000000, -815.000000)" fill="#FFFFFF">
            <g id="表格条目类1-copy-6" transform="translate(0.000000, 710.000000)">
                <g id="Group-2" transform="translate(40.000000, 95.000000)">
                    <g id="Group-10">
                        <path d="M23,23 L23,17 C23,15.8954305 23.8954305,15 25,15 C26.1045695,15 27,15.8954305 27,17 L27,23 L33,23 C34.1045695,23 35,23.8954305 35,25 C35,26.1045695 34.1045695,27 33,27 L27,27 L27,33 C27,34.1045695 26.1045695,35 25,35 C23.8954305,35 23,34.1045695 23,33 L23,27 L17,27 C15.8954305,27 15,26.1045695 15,25 C15,23.8954305 15.8954305,23 17,23 L23,23 Z M25,40 C16.7157288,40 10,33.2842712 10,25 C10,16.7157288 16.7157288,10 25,10 C33.2842712,10 40,16.7157288 40,25 C40,33.2842712 33.2842712,40 25,40 Z M25,37 C31.627417,37 37,31.627417 37,25 C37,18.372583 31.627417,13 25,13 C18.372583,13 13,18.372583 13,25 C13,31.627417 18.372583,37 25,37 Z" id="Combined-Shape"></path>
                    </g>
                </g>
            </g>
        </g>
    </g>
</svg>