<?xml version="1.0" standalone="no"?><!DOCTYPE svg PUBLIC "-//W3C//DTD SVG 1.1//EN" "http://www.w3.org/Graphics/SVG/1.1/DTD/svg11.dtd"><svg t="1510666590929" class="icon" style="" viewBox="0 0 1024 1024" version="1.1" xmlns="http://www.w3.org/2000/svg" p-id="2607" xmlns:xlink="http://www.w3.org/1999/xlink" width="36" height="36"><defs><style type="text/css"></style></defs><path d="M476.508 476.158v-10.882c0-138.228-0.01-276.462 0.014-414.689 0.006-18.021 8.483-31.048 23.523-36.476 22.134-7.983 46.029 7.598 47.678 31.134 0.226 3.194 0.118 6.413 0.124 9.624 0.006 137.239 0.006 274.485 0.006 411.726v9.559h10.062c137.518 0 275.041-0.021 412.559 0.07 5.384 0.006 10.962 0.271 16.119 1.652 16.312 4.385 26.571 19.862 25.303 37.201-1.213 16.555-13.951 30.002-30.621 32.092-3.901 0.488-7.877 0.525-11.822 0.525-136.777 0.025-273.559 0.018-410.336 0.018H547.85v9.906c0 138.473 0.013 276.953-0.009 415.43-0.007 20.021-10.468 33.984-28.329 38.096-20.667 4.752-41.589-10.863-42.873-32.051-0.179-2.953-0.117-5.924-0.117-8.883-0.008-137.24-0.008-274.484-0.008-411.729V548.22c-3.911-0.188-7.248-0.479-10.586-0.486-137.766-0.023-275.534-0.064-413.3 0.055-13.342 0.01-24.912-3.223-33.282-14.227-16.265-21.389-4.085-52.17 22.438-56.598 4.109-0.687 8.35-0.771 12.534-0.771 137.271-0.039 274.546-0.028 411.816-0.028h10.376l-0.002-0.007z" p-id="2608" fill="#ffffff"></path></svg>