<?xml version="1.0" encoding="UTF-8" standalone="no"?>
<svg width="30px" height="30px" viewBox="0 0 30 30" version="1.1" xmlns="http://www.w3.org/2000/svg" xmlns:xlink="http://www.w3.org/1999/xlink">
    <!-- Generator: Sketch 46.1 (44463) - http://www.bohemiancoding.com/sketch -->
    <title>Combined Shape</title>
    <desc>Created with Sketch.</desc>
    <defs></defs>
    <g id="Page-1" stroke="none" stroke-width="1" fill="none" fill-rule="evenodd">
        <g id="移动监管-新增任务" transform="translate(-50.000000, -899.000000)" fill="#30C1FF">
            <g id="表格条目类1-copy-6" transform="translate(0.000000, 710.000000)">
                <g id="Group-2" transform="translate(40.000000, 95.000000)">
                    <g id="Group-9" transform="translate(0.000000, 50.000000)">
                        <path d="M25,74 C16.7157288,74 10,67.2842712 10,59 C10,50.7157288 16.7157288,44 25,44 C33.2842712,44 40,50.7157288 40,59 C40,67.2842712 33.2842712,74 25,74 Z M25,71 C31.627417,71 37,65.627417 37,59 C37,52.372583 31.627417,47 25,47 C18.372583,47 13,52.372583 13,59 C13,65.627417 18.372583,71 25,71 Z M17,57 L33,57 C34.1045695,57 35,57.8954305 35,59 C35,60.1045695 34.1045695,61 33,61 L17,61 C15.8954305,61 15,60.1045695 15,59 C15,57.8954305 15.8954305,57 17,57 Z" id="Combined-Shape"></path>
                    </g>
                </g>
            </g>
        </g>
    </g>
</svg>